<?xml version="1.0" standalone="no"?><!DOCTYPE svg PUBLIC "-//W3C//DTD SVG 1.1//EN" "http://www.w3.org/Graphics/SVG/1.1/DTD/svg11.dtd"><svg t="1499662479214" class="icon" style="" viewBox="0 0 1024 1024" version="1.1" xmlns="http://www.w3.org/2000/svg" p-id="3459" xmlns:xlink="http://www.w3.org/1999/xlink" width="200" height="200"><defs><style type="text/css"></style></defs><path d="M230.4 512C230.4 512 230.4 512 230.4 512c0-6.4 6.4-19.2 12.8-25.6l403.2-409.6c12.8-12.8 38.4-12.8 51.2 0 12.8 12.8 12.8 38.4 0 51.2L313.6 512l384 390.4c12.8 12.8 12.8 38.4 0 51.2-12.8 12.8-38.4 12.8-51.2 0L236.8 537.6C230.4 531.2 230.4 518.4 230.4 512 230.4 512 230.4 512 230.4 512z" p-id="3460"></path></svg>